<mxfile host="65bd71144e">
    <diagram id="NIuk0Yv9q91BMR4zFglk" name="Page-1">
        <mxGraphModel dx="820" dy="1630" grid="1" gridSize="10" guides="1" tooltips="1" connect="1" arrows="1" fold="1" page="1" pageScale="1" pageWidth="827" pageHeight="1169" math="0" shadow="0">
            <root>
                <mxCell id="0"/>
                <mxCell id="1" parent="0"/>
                <mxCell id="2" value="&lt;u style=&quot;font-size: 29px&quot;&gt;&lt;b style=&quot;font-size: 29px&quot;&gt;&lt;font style=&quot;font-size: 29px&quot;&gt;User Management Flow&lt;/font&gt;&lt;/b&gt;&lt;/u&gt;" style="text;html=1;strokeColor=none;fillColor=none;align=center;verticalAlign=middle;whiteSpace=wrap;rounded=0;fontSize=29;" parent="1" vertex="1">
                    <mxGeometry x="650" y="-170" width="350" height="40" as="geometry"/>
                </mxCell>
                <mxCell id="7" value="" style="edgeStyle=none;html=1;entryX=0;entryY=0.5;entryDx=0;entryDy=0;exitX=0;exitY=0.25;exitDx=0;exitDy=0;" parent="1" source="3" target="6" edge="1">
                    <mxGeometry relative="1" as="geometry">
                        <Array as="points">
                            <mxPoint x="40" y="90"/>
                            <mxPoint x="40" y="460"/>
                        </Array>
                    </mxGeometry>
                </mxCell>
                <mxCell id="25" style="edgeStyle=none;html=1;exitX=0.5;exitY=1;exitDx=0;exitDy=0;entryX=0.5;entryY=0;entryDx=0;entryDy=0;" parent="1" source="3" target="8" edge="1">
                    <mxGeometry relative="1" as="geometry"/>
                </mxCell>
                <mxCell id="3" value="Client - index.php" style="rounded=1;whiteSpace=wrap;html=1;fillColor=#d80073;strokeColor=#A50040;fontColor=#ffffff;" parent="1" vertex="1">
                    <mxGeometry x="120" y="80" width="120" height="40" as="geometry"/>
                </mxCell>
                <mxCell id="4" value="Register" style="rounded=1;whiteSpace=wrap;html=1;fillColor=#008a00;strokeColor=#005700;fontColor=#ffffff;" parent="1" vertex="1">
                    <mxGeometry x="120" y="360" width="120" height="40" as="geometry"/>
                </mxCell>
                <mxCell id="6" value="Login" style="whiteSpace=wrap;html=1;rounded=1;fillColor=#6a00ff;strokeColor=#3700CC;fontColor=#ffffff;" parent="1" vertex="1">
                    <mxGeometry x="120" y="440" width="120" height="40" as="geometry"/>
                </mxCell>
                <mxCell id="18" value="" style="edgeStyle=none;html=1;entryX=0;entryY=0.5;entryDx=0;entryDy=0;exitX=0;exitY=0.75;exitDx=0;exitDy=0;" parent="1" source="3" target="4" edge="1">
                    <mxGeometry relative="1" as="geometry">
                        <Array as="points">
                            <mxPoint x="80" y="110"/>
                            <mxPoint x="80" y="380"/>
                        </Array>
                    </mxGeometry>
                </mxCell>
                <mxCell id="20" value="" style="edgeStyle=none;html=1;exitX=1;exitY=0.5;exitDx=0;exitDy=0;" parent="1" source="8" target="19" edge="1">
                    <mxGeometry relative="1" as="geometry">
                        <Array as="points">
                            <mxPoint x="300" y="180"/>
                            <mxPoint x="300" y="60"/>
                            <mxPoint x="400" y="60"/>
                        </Array>
                    </mxGeometry>
                </mxCell>
                <mxCell id="8" value="Forgot Password" style="whiteSpace=wrap;html=1;rounded=1;fillColor=#008a00;strokeColor=#005700;fontColor=#ffffff;arcSize=25;" parent="1" vertex="1">
                    <mxGeometry x="120" y="160" width="120" height="40" as="geometry"/>
                </mxCell>
                <mxCell id="16" value="App - User Menu Dropdown" style="whiteSpace=wrap;html=1;rounded=1;" parent="1" vertex="1">
                    <mxGeometry x="60" y="600" width="180" height="40" as="geometry"/>
                </mxCell>
                <mxCell id="78" style="edgeStyle=none;html=1;exitX=0.5;exitY=1;exitDx=0;exitDy=0;entryX=0.5;entryY=0;entryDx=0;entryDy=0;fontSize=29;" edge="1" parent="1" source="19" target="77">
                    <mxGeometry relative="1" as="geometry">
                        <Array as="points">
                            <mxPoint x="400" y="140"/>
                            <mxPoint x="433" y="140"/>
                        </Array>
                    </mxGeometry>
                </mxCell>
                <mxCell id="19" value="&lt;font style=&quot;font-size: 12px&quot; color=&quot;#ffffff&quot;&gt;&lt;span style=&quot;font-family: &amp;#34;droid sans mono&amp;#34; , monospace , monospace , &amp;#34;droid sans fallback&amp;#34;&quot;&gt;App-&amp;gt;routeApp&lt;/span&gt;&lt;span style=&quot;background-color: rgb(30 , 30 , 30) ; font-family: &amp;#34;droid sans mono&amp;#34; , monospace , monospace , &amp;#34;droid sans fallback&amp;#34;&quot;&gt;()&lt;/span&gt;&lt;/font&gt;" style="whiteSpace=wrap;html=1;rounded=1;" parent="1" vertex="1">
                    <mxGeometry x="320" y="80" width="160" height="40" as="geometry"/>
                </mxCell>
                <mxCell id="27" value="" style="edgeStyle=none;html=1;fontColor=#FFFFFF;exitX=1;exitY=0.25;exitDx=0;exitDy=0;entryX=0;entryY=0.25;entryDx=0;entryDy=0;" parent="1" source="23" target="26" edge="1">
                    <mxGeometry relative="1" as="geometry"/>
                </mxCell>
                <mxCell id="48" style="edgeStyle=none;html=1;exitX=0.75;exitY=1;exitDx=0;exitDy=0;entryX=0;entryY=0.25;entryDx=0;entryDy=0;fontSize=14;" edge="1" parent="1" source="23" target="31">
                    <mxGeometry relative="1" as="geometry">
                        <Array as="points">
                            <mxPoint x="893" y="250"/>
                        </Array>
                    </mxGeometry>
                </mxCell>
                <mxCell id="80" style="edgeStyle=none;html=1;exitX=0;exitY=0.75;exitDx=0;exitDy=0;entryX=1;entryY=0.75;entryDx=0;entryDy=0;fontSize=29;" edge="1" parent="1" source="23" target="77">
                    <mxGeometry relative="1" as="geometry"/>
                </mxCell>
                <mxCell id="23" value="&lt;div style=&quot;background-color: rgb(30 , 30 , 30) ; font-family: &amp;#34;droid sans mono&amp;#34; , monospace , monospace , &amp;#34;droid sans fallback&amp;#34; ; line-height: 19px&quot;&gt;&lt;font style=&quot;font-size: 12px&quot;&gt;User\User-&amp;gt;resend()&lt;/font&gt;&lt;/div&gt;" style="whiteSpace=wrap;html=1;rounded=1;fontColor=#FFFFFF;" parent="1" vertex="1">
                    <mxGeometry x="750" y="160" width="190" height="40" as="geometry"/>
                </mxCell>
                <mxCell id="47" style="edgeStyle=none;html=1;exitX=0;exitY=0.75;exitDx=0;exitDy=0;entryX=1;entryY=0.75;entryDx=0;entryDy=0;fontSize=14;" edge="1" parent="1" source="26" target="23">
                    <mxGeometry relative="1" as="geometry"/>
                </mxCell>
                <mxCell id="26" value="Model-&amp;gt;callsResend()" style="whiteSpace=wrap;html=1;rounded=1;fontColor=#FFFFFF;" parent="1" vertex="1">
                    <mxGeometry x="1065" y="160" width="160" height="40" as="geometry"/>
                </mxCell>
                <mxCell id="49" style="edgeStyle=none;html=1;exitX=0;exitY=0.75;exitDx=0;exitDy=0;entryX=0.5;entryY=1;entryDx=0;entryDy=0;fontSize=14;" edge="1" parent="1" source="31" target="23">
                    <mxGeometry relative="1" as="geometry">
                        <Array as="points">
                            <mxPoint x="845" y="270"/>
                        </Array>
                    </mxGeometry>
                </mxCell>
                <mxCell id="31" value="View-&amp;gt;resend()" style="whiteSpace=wrap;html=1;rounded=1;fontColor=#FFFFFF;" parent="1" vertex="1">
                    <mxGeometry x="1065" y="240" width="160" height="40" as="geometry"/>
                </mxCell>
                <mxCell id="36" value="User Interface" style="text;html=1;strokeColor=none;fillColor=none;align=center;verticalAlign=middle;whiteSpace=wrap;rounded=0;fontStyle=5;fontSize=14;" vertex="1" parent="1">
                    <mxGeometry x="100" y="-80" width="150" height="20" as="geometry"/>
                </mxCell>
                <mxCell id="39" style="edgeStyle=none;html=1;exitX=0.5;exitY=1;exitDx=0;exitDy=0;entryX=0.5;entryY=0;entryDx=0;entryDy=0;fontSize=14;" edge="1" parent="1" source="38" target="3">
                    <mxGeometry relative="1" as="geometry"/>
                </mxCell>
                <mxCell id="38" value="START" style="rounded=1;whiteSpace=wrap;html=1;fontSize=14;fillColor=#0050ef;strokeColor=#001DBC;fontColor=#ffffff;" vertex="1" parent="1">
                    <mxGeometry x="135" width="90" height="40" as="geometry"/>
                </mxCell>
                <mxCell id="41" style="edgeStyle=none;html=1;exitX=0.5;exitY=1;exitDx=0;exitDy=0;entryX=0.5;entryY=0;entryDx=0;entryDy=0;fontSize=14;" edge="1" parent="1" source="40" target="16">
                    <mxGeometry relative="1" as="geometry">
                        <Array as="points">
                            <mxPoint x="180" y="580"/>
                            <mxPoint x="150" y="580"/>
                        </Array>
                    </mxGeometry>
                </mxCell>
                <mxCell id="40" value="START" style="rounded=1;whiteSpace=wrap;html=1;fontSize=14;fillColor=#0050ef;strokeColor=#001DBC;fontColor=#ffffff;" vertex="1" parent="1">
                    <mxGeometry x="135" y="520" width="90" height="40" as="geometry"/>
                </mxCell>
                <mxCell id="42" value="Application API" style="text;html=1;strokeColor=none;fillColor=none;align=center;verticalAlign=middle;whiteSpace=wrap;rounded=0;fontStyle=5;fontSize=14;" vertex="1" parent="1">
                    <mxGeometry x="400" y="-80" width="150" height="20" as="geometry"/>
                </mxCell>
                <mxCell id="44" value="Controller" style="text;html=1;strokeColor=none;fillColor=none;align=center;verticalAlign=middle;whiteSpace=wrap;rounded=0;fontStyle=5;fontSize=14;" vertex="1" parent="1">
                    <mxGeometry x="770" y="-80" width="150" height="20" as="geometry"/>
                </mxCell>
                <mxCell id="46" value="Model &amp;amp; View" style="text;html=1;strokeColor=none;fillColor=none;align=center;verticalAlign=middle;whiteSpace=wrap;rounded=0;fontStyle=5;fontSize=14;" vertex="1" parent="1">
                    <mxGeometry x="1070" y="-80" width="150" height="20" as="geometry"/>
                </mxCell>
                <mxCell id="59" style="edgeStyle=none;html=1;exitX=1;exitY=0.5;exitDx=0;exitDy=0;entryX=0;entryY=0.5;entryDx=0;entryDy=0;fontSize=14;" edge="1" parent="1" source="51" target="58">
                    <mxGeometry relative="1" as="geometry"/>
                </mxCell>
                <mxCell id="51" value="Button" style="whiteSpace=wrap;html=1;rounded=1;fillColor=#008a00;strokeColor=#005700;fontColor=#ffffff;arcSize=25;fontStyle=1" vertex="1" parent="1">
                    <mxGeometry x="40" y="-280" width="80" height="40" as="geometry"/>
                </mxCell>
                <mxCell id="57" style="edgeStyle=none;html=1;exitX=1;exitY=0.5;exitDx=0;exitDy=0;entryX=0;entryY=0.5;entryDx=0;entryDy=0;fontSize=14;" edge="1" parent="1" source="52" target="56">
                    <mxGeometry relative="1" as="geometry"/>
                </mxCell>
                <mxCell id="52" value="START" style="rounded=1;whiteSpace=wrap;html=1;fontSize=14;fillColor=#0050ef;strokeColor=#001DBC;fontColor=#ffffff;fontStyle=1" vertex="1" parent="1">
                    <mxGeometry x="40" y="-340" width="80" height="40" as="geometry"/>
                </mxCell>
                <mxCell id="61" style="edgeStyle=none;html=1;exitX=1;exitY=0.5;exitDx=0;exitDy=0;entryX=0;entryY=0.5;entryDx=0;entryDy=0;fontSize=14;" edge="1" parent="1" source="54" target="60">
                    <mxGeometry relative="1" as="geometry"/>
                </mxCell>
                <mxCell id="54" value="Form" style="whiteSpace=wrap;html=1;rounded=1;fillColor=#6a00ff;strokeColor=#3700CC;fontColor=#ffffff;fontStyle=1" vertex="1" parent="1">
                    <mxGeometry x="40" y="-220" width="80" height="40" as="geometry"/>
                </mxCell>
                <mxCell id="56" value="&lt;span style=&quot;text-align: left&quot;&gt;Represents the start of the process.&lt;/span&gt;" style="text;html=1;strokeColor=none;fillColor=none;align=center;verticalAlign=middle;whiteSpace=wrap;rounded=0;fontSize=14;" vertex="1" parent="1">
                    <mxGeometry x="160" y="-340" width="240" height="40" as="geometry"/>
                </mxCell>
                <mxCell id="58" value="&lt;span style=&quot;text-align: left&quot;&gt;Button that triggers an event to the API.&lt;/span&gt;" style="text;html=1;strokeColor=none;fillColor=none;align=center;verticalAlign=middle;whiteSpace=wrap;rounded=0;fontSize=14;" vertex="1" parent="1">
                    <mxGeometry x="160" y="-280" width="260" height="40" as="geometry"/>
                </mxCell>
                <mxCell id="60" value="&lt;span style=&quot;text-align: left&quot;&gt;Form with a button sending data to API.&lt;/span&gt;" style="text;html=1;strokeColor=none;fillColor=none;align=center;verticalAlign=middle;whiteSpace=wrap;rounded=0;fontSize=14;" vertex="1" parent="1">
                    <mxGeometry x="160" y="-220" width="260" height="40" as="geometry"/>
                </mxCell>
                <mxCell id="64" style="edgeStyle=none;html=1;exitX=1;exitY=0.5;exitDx=0;exitDy=0;entryX=0;entryY=0.5;entryDx=0;entryDy=0;fontSize=29;" edge="1" parent="1" source="62" target="63">
                    <mxGeometry relative="1" as="geometry"/>
                </mxCell>
                <mxCell id="62" value="Client Page" style="rounded=1;whiteSpace=wrap;html=1;fillColor=#d80073;strokeColor=#A50040;fontColor=#ffffff;fontStyle=1" vertex="1" parent="1">
                    <mxGeometry x="40" y="-160" width="80" height="40" as="geometry"/>
                </mxCell>
                <mxCell id="63" value="&lt;span style=&quot;text-align: left&quot;&gt;Client web page hosted on client server.&lt;/span&gt;" style="text;html=1;strokeColor=none;fillColor=none;align=center;verticalAlign=middle;whiteSpace=wrap;rounded=0;fontSize=14;" vertex="1" parent="1">
                    <mxGeometry x="160" y="-160" width="260" height="40" as="geometry"/>
                </mxCell>
                <mxCell id="67" value="" style="endArrow=none;dashed=1;html=1;fontSize=29;" edge="1" parent="1">
                    <mxGeometry width="50" height="50" relative="1" as="geometry">
                        <mxPoint x="280" y="1161" as="sourcePoint"/>
                        <mxPoint x="280" y="-100" as="targetPoint"/>
                    </mxGeometry>
                </mxCell>
                <mxCell id="68" value="" style="endArrow=none;dashed=1;html=1;fontSize=29;" edge="1" parent="1">
                    <mxGeometry width="50" height="50" relative="1" as="geometry">
                        <mxPoint x="10" y="1161" as="sourcePoint"/>
                        <mxPoint x="10" y="-100" as="targetPoint"/>
                    </mxGeometry>
                </mxCell>
                <mxCell id="69" value="" style="endArrow=none;dashed=1;html=1;fontSize=29;" edge="1" parent="1">
                    <mxGeometry width="50" height="50" relative="1" as="geometry">
                        <mxPoint x="700" y="1161" as="sourcePoint"/>
                        <mxPoint x="700" y="-100" as="targetPoint"/>
                    </mxGeometry>
                </mxCell>
                <mxCell id="70" value="" style="endArrow=none;dashed=1;html=1;fontSize=29;" edge="1" parent="1">
                    <mxGeometry width="50" height="50" relative="1" as="geometry">
                        <mxPoint x="1000" y="1161" as="sourcePoint"/>
                        <mxPoint x="1000" y="-100" as="targetPoint"/>
                    </mxGeometry>
                </mxCell>
                <mxCell id="71" value="" style="endArrow=none;dashed=1;html=1;fontSize=29;" edge="1" parent="1">
                    <mxGeometry width="50" height="50" relative="1" as="geometry">
                        <mxPoint x="1280" y="1161" as="sourcePoint"/>
                        <mxPoint x="1280" y="-100" as="targetPoint"/>
                    </mxGeometry>
                </mxCell>
                <mxCell id="72" value="" style="endArrow=none;dashed=1;html=1;fontSize=29;" edge="1" parent="1">
                    <mxGeometry width="50" height="50" relative="1" as="geometry">
                        <mxPoint x="1570" y="1161" as="sourcePoint"/>
                        <mxPoint x="1570" y="-100" as="targetPoint"/>
                    </mxGeometry>
                </mxCell>
                <mxCell id="74" value="Data" style="text;html=1;strokeColor=none;fillColor=none;align=center;verticalAlign=middle;whiteSpace=wrap;rounded=0;fontStyle=5;fontSize=14;" vertex="1" parent="1">
                    <mxGeometry x="1360" y="-80" width="150" height="20" as="geometry"/>
                </mxCell>
                <mxCell id="75" value="" style="endArrow=none;dashed=1;html=1;fontSize=29;" edge="1" parent="1">
                    <mxGeometry width="50" height="50" relative="1" as="geometry">
                        <mxPoint x="10" y="-100" as="sourcePoint"/>
                        <mxPoint x="1571" y="-100" as="targetPoint"/>
                    </mxGeometry>
                </mxCell>
                <mxCell id="76" value="" style="endArrow=none;dashed=1;html=1;fontSize=29;" edge="1" parent="1">
                    <mxGeometry width="50" height="50" relative="1" as="geometry">
                        <mxPoint x="10" y="1160" as="sourcePoint"/>
                        <mxPoint x="1571" y="1160" as="targetPoint"/>
                    </mxGeometry>
                </mxCell>
                <mxCell id="79" style="edgeStyle=none;html=1;exitX=1;exitY=0.25;exitDx=0;exitDy=0;entryX=0;entryY=0.25;entryDx=0;entryDy=0;fontSize=29;" edge="1" parent="1" source="77" target="23">
                    <mxGeometry relative="1" as="geometry"/>
                </mxCell>
                <mxCell id="77" value="&lt;font style=&quot;font-size: 12px&quot; color=&quot;#ffffff&quot;&gt;&lt;span style=&quot;font-family: &amp;#34;droid sans mono&amp;#34; , monospace , monospace , &amp;#34;droid sans fallback&amp;#34;&quot;&gt;App-&amp;gt;&lt;/span&gt;&lt;span style=&quot;background-color: rgb(30 , 30 , 30) ; font-family: &amp;#34;droid sans mono&amp;#34; , monospace , monospace , &amp;#34;droid sans fallback&amp;#34;&quot;&gt;loadControllerMethod()&lt;/span&gt;&lt;/font&gt;" style="whiteSpace=wrap;html=1;rounded=1;" vertex="1" parent="1">
                    <mxGeometry x="320" y="160" width="225" height="40" as="geometry"/>
                </mxCell>
            </root>
        </mxGraphModel>
    </diagram>
</mxfile>